<svg width="1601" height="418" viewBox="0 0 1601 418" fill="none" xmlns="http://www.w3.org/2000/svg">
<path d="M0 321.151C128.317 258.81 171.9 156.725 141.348 16.0886C153.632 16.0886 165.342 15.8639 177.04 16.1302C221.109 17.1326 210.147 8.7011 224.811 50.9295C252.142 129.633 280.876 207.855 307.307 286.854C313.042 304.002 311.495 323.587 313.572 344.776C294.321 344.776 277.765 345.596 261.409 344.167C257.598 343.832 253.027 336.365 251.228 331.313C236.567 290.165 222.48 248.815 208.214 207.531C207.645 205.883 207.001 204.265 206.822 203.775C190.591 230.317 176.234 258.016 157.925 282.79C125.491 326.68 82.6649 358.205 32.3088 379.515C22.1361 383.819 20.5324 375.936 18.388 370.746C11.8847 355.01 6.4617 338.828 0 321.139V321.151Z" fill="white"/>
<path d="M368.014 333V86.3936H438.082V333H368.014ZM558.907 337.102C538.513 337.102 520.968 333.171 506.271 325.31C491.573 317.448 480.237 306.169 472.262 291.472C464.4 276.66 460.47 259.001 460.47 238.493V238.322C460.47 217.928 464.4 200.44 472.262 185.856C480.237 171.159 491.516 159.88 506.1 152.019C520.797 144.157 538.229 140.227 558.395 140.227C576.738 140.227 592.802 143.588 606.588 150.31C620.488 156.918 631.254 166.26 638.888 178.337C646.635 190.414 650.509 204.598 650.509 220.891V221.916H586.764L586.593 220.207C585.795 211.662 583.004 204.883 578.219 199.87C573.434 194.743 567.281 192.18 559.762 192.18C553.723 192.18 548.596 194.003 544.381 197.648C540.165 201.18 536.975 206.421 534.811 213.371C532.646 220.207 531.563 228.581 531.563 238.493V238.664C531.563 248.69 532.589 257.178 534.64 264.128C536.804 271.078 539.994 276.319 544.21 279.851C548.425 283.382 553.609 285.148 559.762 285.148C567.623 285.148 573.832 282.642 578.39 277.629C583.061 272.616 585.795 265.78 586.593 257.121L586.764 255.412H650.509V256.438C650.509 271.818 646.863 285.604 639.571 297.795C632.394 309.872 621.969 319.442 608.297 326.506C594.625 333.57 578.162 337.102 558.907 337.102ZM765.694 337.102C745.073 337.102 727.356 333.285 712.545 325.651C697.734 317.904 686.34 306.739 678.365 292.155C670.504 277.458 666.573 259.685 666.573 238.835V238.493C666.573 217.985 670.618 200.383 678.707 185.686C686.91 170.988 698.417 159.766 713.229 152.019C728.04 144.157 745.528 140.227 765.694 140.227C785.974 140.227 803.52 144.1 818.331 151.848C833.142 159.595 844.592 170.817 852.682 185.515C860.885 200.098 864.986 217.757 864.986 238.493V238.835C864.986 259.799 860.999 277.629 853.023 292.326C845.048 306.91 833.655 318.018 818.844 325.651C804.033 333.285 786.316 337.102 765.694 337.102ZM765.865 285.148C771.676 285.148 776.689 283.382 780.904 279.851C785.12 276.205 788.31 270.964 790.475 264.128C792.753 257.178 793.893 248.747 793.893 238.835V238.493C793.893 228.695 792.696 220.378 790.304 213.542C788.025 206.592 784.778 201.294 780.562 197.648C776.347 194.003 771.391 192.18 765.694 192.18C759.998 192.18 755.042 194.003 750.826 197.648C746.611 201.294 743.364 206.592 741.085 213.542C738.806 220.378 737.667 228.695 737.667 238.493V238.835C737.667 248.747 738.749 257.178 740.914 264.128C743.193 270.964 746.44 276.205 750.655 279.851C754.871 283.382 759.941 285.148 765.865 285.148ZM887.545 333V86.3936H957.613V333H887.545ZM1041.87 335.393C1029.22 335.393 1018.05 332.886 1008.37 327.873C998.8 322.86 991.28 316.081 985.812 307.536C980.457 298.877 977.779 289.136 977.779 278.312V278.142C977.779 265.951 980.799 255.64 986.837 247.209C992.989 238.778 1001.88 232.17 1013.5 227.385C1025.12 222.486 1039.3 219.466 1056.05 218.327L1133.13 213.2V252.165L1067.67 256.779C1060.27 257.235 1054.8 258.887 1051.27 261.735C1047.85 264.584 1046.14 268.343 1046.14 273.015V273.186C1046.14 278.085 1048.08 281.844 1051.95 284.465C1055.82 287.085 1061.01 288.396 1067.5 288.396C1073.08 288.396 1077.98 287.484 1082.2 285.661C1086.41 283.724 1089.72 281.104 1092.11 277.8C1094.5 274.496 1095.7 270.793 1095.7 266.691V208.073C1095.7 202.604 1093.93 198.275 1090.4 195.085C1086.87 191.895 1081.51 190.3 1074.34 190.3C1067.16 190.3 1061.58 191.667 1057.59 194.401C1053.6 197.136 1051.21 200.44 1050.41 204.313L1050.07 206.022H987.521L987.691 203.801C988.717 190.926 992.875 179.761 1000.17 170.305C1007.57 160.734 1017.83 153.329 1030.93 148.088C1044.14 142.847 1059.92 140.227 1078.27 140.227C1095.81 140.227 1111.14 142.961 1124.24 148.43C1137.34 153.785 1147.54 161.304 1154.83 170.988C1162.12 180.673 1165.77 191.895 1165.77 204.655V333H1095.7V307.365H1094.33C1090.8 313.29 1086.47 318.36 1081.34 322.575C1076.33 326.791 1070.52 329.981 1063.91 332.146C1057.3 334.31 1049.96 335.393 1041.87 335.393ZM1320.94 337.102C1311.83 337.102 1303.51 335.677 1295.99 332.829C1288.59 329.867 1282.21 325.708 1276.85 320.354C1271.5 314.885 1267.4 308.334 1264.55 300.7H1263.18V333H1193.11V86.3936H1263.18V178.337H1264.55C1267.51 170.362 1271.67 163.526 1277.02 157.829C1282.38 152.132 1288.7 147.803 1295.99 144.841C1303.4 141.765 1311.6 140.227 1320.6 140.227C1336.44 140.227 1349.83 144.043 1360.76 151.677C1371.81 159.196 1380.19 170.305 1385.88 185.002C1391.7 199.585 1394.6 217.416 1394.6 238.493V238.664C1394.6 259.628 1391.7 277.458 1385.88 292.155C1380.19 306.739 1371.81 317.904 1360.76 325.651C1349.83 333.285 1336.55 337.102 1320.94 337.102ZM1293.43 280.705C1299.58 280.705 1304.88 278.996 1309.32 275.578C1313.88 272.16 1317.35 267.318 1319.75 261.052C1322.25 254.785 1323.51 247.323 1323.51 238.664V238.493C1323.51 229.72 1322.25 222.201 1319.75 215.935C1317.24 209.668 1313.71 204.883 1309.15 201.579C1304.71 198.275 1299.47 196.623 1293.43 196.623C1287.39 196.623 1282.09 198.275 1277.54 201.579C1272.98 204.883 1269.45 209.668 1266.94 215.935C1264.43 222.201 1263.18 229.777 1263.18 238.664V238.835C1263.18 247.608 1264.43 255.127 1266.94 261.394C1269.45 267.66 1272.92 272.445 1277.36 275.749C1281.92 279.053 1287.28 280.705 1293.43 280.705ZM1503.63 337.102C1483.81 337.102 1467.12 334.481 1453.56 329.24C1440 323.885 1429.52 316.48 1422.12 307.023C1414.71 297.567 1410.27 286.573 1408.79 274.04L1408.61 272.502H1476.29L1476.63 273.869C1478 279.338 1480.85 283.61 1485.18 286.687C1489.62 289.763 1495.77 291.301 1503.63 291.301C1508.19 291.301 1512.06 290.845 1515.25 289.934C1518.56 288.908 1521.07 287.484 1522.77 285.661C1524.6 283.838 1525.51 281.674 1525.51 279.167V278.996C1525.51 275.578 1523.91 272.844 1520.72 270.793C1517.53 268.628 1512.06 266.805 1504.32 265.324L1470.14 259.001C1457.72 256.722 1447.24 253.076 1438.69 248.063C1430.15 242.937 1423.71 236.556 1419.38 228.923C1415.05 221.289 1412.89 212.631 1412.89 202.946V202.775C1412.89 189.673 1416.42 178.508 1423.48 169.279C1430.55 159.937 1440.69 152.759 1453.9 147.746C1467.12 142.733 1482.84 140.227 1501.07 140.227C1520.55 140.227 1536.79 143.132 1549.78 148.942C1562.88 154.753 1572.73 162.443 1579.34 172.014C1585.95 181.584 1589.25 192.123 1589.25 203.63V204.826H1525.68L1525.51 203.288C1525.05 198.845 1522.72 194.857 1518.5 191.325C1514.4 187.793 1508.59 186.027 1501.07 186.027C1496.85 186.027 1493.15 186.54 1489.96 187.565C1486.77 188.591 1484.27 190.072 1482.44 192.009C1480.73 193.832 1479.88 196.11 1479.88 198.845V199.016C1479.88 201.18 1480.51 203.117 1481.76 204.826C1483.01 206.421 1485.23 207.845 1488.42 209.099C1491.61 210.352 1496.06 211.548 1501.75 212.688L1535.93 219.011C1556.33 222.771 1571.25 228.809 1580.71 237.126C1590.17 245.443 1594.89 256.722 1594.89 270.964V271.135C1594.89 284.693 1591.08 296.428 1583.44 306.34C1575.81 316.138 1565.16 323.715 1551.49 329.069C1537.81 334.424 1521.86 337.102 1503.63 337.102Z" fill="white"/>
</svg>
